<svg width="96" height="96" viewBox="0 0 96 96" fill="none" xmlns="http://www.w3.org/2000/svg">
<g clip-path="url(#clip0_800_3871)">
<path d="M43.073 46.9258C41.9538 46.9258 40.8597 47.2577 39.9291 47.8795C38.9985 48.5013 38.2731 49.3851 37.8448 50.4191C37.4165 51.4532 37.3044 52.591 37.5228 53.6888C37.7412 54.7865 38.2801 55.7948 39.0715 56.5862C39.863 57.3776 40.8713 57.9166 41.969 58.135C43.0667 58.3533 44.2046 58.2412 45.2386 57.8129C46.2727 57.3846 47.1565 56.6593 47.7783 55.7287C48.4001 54.7981 48.732 53.704 48.732 52.5847C48.7305 51.0844 48.1338 49.6459 47.0728 48.5849C46.0119 47.524 44.5734 46.9273 43.073 46.9258Z" fill="white"/>
<path d="M47.8308 18.8594C24.6537 18.8594 18.8594 24.6537 18.8594 47.8308C18.8594 71.008 24.6537 76.8022 47.8308 76.8022C71.008 76.8022 76.8022 71.008 76.8022 47.8308C76.8022 24.6537 71.008 18.8594 47.8308 18.8594ZM43.0772 63.6736C40.8835 63.6736 38.7391 63.0231 36.9151 61.8043C35.0912 60.5855 33.6696 58.8532 32.8302 56.8264C31.9908 54.7997 31.7712 52.5696 32.1994 50.418C32.6275 48.2665 33.684 46.2903 35.2353 44.7392C36.7866 43.1882 38.763 42.132 40.9146 41.7043C43.0662 41.2765 45.2963 41.4965 47.3229 42.3362C49.3495 43.176 51.0816 44.5978 52.3 46.422C53.5185 48.2462 54.1687 50.3907 54.1683 52.5844C54.1643 55.5245 52.9944 58.3431 50.9152 60.4219C48.8361 62.5007 46.0173 63.6701 43.0772 63.6736ZM63.2219 63.2219H57.7897V37.8719H32.4397V32.4397H63.2219V63.2219Z" fill="white"/>
</g>
<defs>
<clipPath id="clip0_800_3871">
<rect width="57.9429" height="57.9429" fill="white" transform="translate(18.8594 18.8594)"/>
</clipPath>
</defs>
</svg>
