<svg width="96" height="96" viewBox="0 0 96 96" fill="none" xmlns="http://www.w3.org/2000/svg">
<path d="M72.3702 20.5703L67.9636 69.936L48.1555 75.4274L28.402 69.9437L24 20.5703H72.3702Z" fill="#264DE4"/>
<path d="M64.1934 66.7946L67.9592 24.6094H48.1875V71.2321L64.1934 66.7946Z" fill="#2965F1"/>
<path d="M34.0938 42.918L34.6365 48.9734H48.1874V42.918H34.0938Z" fill="#EBEBEB"/>
<path d="M48.1764 30.6641H48.1554H32.9922L33.5427 36.7196H48.1764V30.6641Z" fill="#EBEBEB"/>
<path d="M48.1866 64.9437V58.6435L48.1601 58.6505L41.4161 56.8295L40.985 52H37.7079H34.9062L35.7546 61.5079L48.1587 64.9514L48.1866 64.9437Z" fill="#EBEBEB"/>
<path d="M55.6207 48.9758L54.9178 56.8293L48.1641 58.6522V64.9521L60.5781 61.5116L60.6691 60.4885L62.0921 44.5465L62.2399 42.9204L63.3331 30.6641H48.1641V36.7196H56.6968L56.1458 42.9204H48.1641V48.9758H55.6207Z" fill="white"/>
</svg>
