<svg width="96" height="96" viewBox="0 0 96 96" fill="none" xmlns="http://www.w3.org/2000/svg">
<path d="M37.9959 77.0894C43.347 77.0894 47.6909 72.7454 47.6909 67.3943V57.6992H37.9959C32.6447 57.6992 28.3008 62.0432 28.3008 67.3943C28.3008 72.7454 32.6447 77.0894 37.9959 77.0894Z" fill="#0ACF83"/>
<path d="M28.2852 47.9998C28.2852 42.6487 32.6291 38.3047 37.9802 38.3047H47.6753V57.705H37.9802C32.6291 57.705 28.2852 53.3611 28.2852 48.0099V47.9998Z" fill="#A259FF"/>
<path d="M28.2852 28.5974C28.2852 23.2463 32.6291 18.9023 37.9802 18.9023H47.6753V38.3027H37.9802C32.6291 38.3027 28.2852 33.9587 28.2852 28.6076V28.5974Z" fill="#F24E1E"/>
<path d="M47.582 18.9023H57.2771C62.6282 18.9023 66.9722 23.2463 66.9722 28.5974C66.9722 33.9485 62.6282 38.2925 57.2771 38.2925H47.582V18.9023Z" fill="#FF7262"/>
<path d="M67.0739 47.9998C67.0739 53.3509 62.73 57.6948 57.3788 57.6948C52.0277 57.6948 47.582 53.3509 47.582 47.9998C47.582 42.6487 51.926 38.3047 57.2771 38.3047C62.6282 38.3047 66.9722 42.6487 66.9722 47.9998H67.0739Z" fill="#1ABCFE"/>
</svg>
