<svg width="96" height="96" viewBox="0 0 96 96" fill="none" xmlns="http://www.w3.org/2000/svg">
<mask id="mask0_800_3813" style="mask-type:luminance" maskUnits="userSpaceOnUse" x="18" y="18" width="59" height="59">
<path d="M18.8555 18.8555H76.9754V76.9754H18.8555V18.8555Z" fill="white"/>
</mask>
<g mask="url(#mask0_800_3813)">
<path d="M22.7974 42.4263L43.2818 21.8549L73.2859 51.7387L52.8485 72.1761L22.7974 42.4263Z" fill="white"/>
<path d="M75.8814 45.3273L50.5048 19.9527C50.1572 19.6048 49.7445 19.3289 49.2901 19.1406C48.8358 18.9524 48.3489 18.8555 47.8571 18.8555C47.3654 18.8555 46.8784 18.9524 46.4241 19.1406C45.9698 19.3289 45.557 19.6048 45.2094 19.9527L39.9418 25.2228L46.625 31.906C47.4107 31.6391 48.2554 31.5975 49.0636 31.7857C49.8718 31.9739 50.6111 32.3846 51.1981 32.9711C51.7883 33.5619 52.2003 34.3069 52.387 35.1209C52.5737 35.9349 52.5275 36.785 52.2537 37.5739L58.6972 44.0155C59.4863 43.7414 60.3368 43.6952 61.151 43.8823C61.9652 44.0693 62.7102 44.482 63.3006 45.073C63.7142 45.4865 64.0423 45.9775 64.2661 46.5178C64.4899 47.0581 64.6051 47.6372 64.6051 48.222C64.6051 48.8069 64.4899 49.386 64.2661 49.9263C64.0423 50.4666 63.7142 50.9575 63.3006 51.371C62.4645 52.2063 61.331 52.6754 60.1491 52.6754C58.9673 52.6754 57.8337 52.2063 56.9976 51.371C56.3765 50.7488 55.9533 49.9568 55.7813 49.0947C55.6093 48.2325 55.6962 47.3388 56.0311 46.5259L50.0222 40.5189V56.3299C50.6565 56.6432 51.2069 57.1031 51.628 57.6715C52.0491 58.2399 52.3288 58.9005 52.4438 59.5984C52.5587 60.2964 52.5058 61.0118 52.2893 61.6852C52.0728 62.3587 51.6989 62.9708 51.1987 63.471C50.7852 63.8846 50.2943 64.2127 49.754 64.4365C49.2137 64.6603 48.6346 64.7755 48.0497 64.7755C47.4649 64.7755 46.8858 64.6603 46.3455 64.4365C45.8052 64.2127 45.3142 63.8846 44.9007 63.471C44.4871 63.0575 44.1589 62.5665 43.935 62.0262C43.7111 61.4858 43.5959 60.9066 43.5959 60.3217C43.5959 59.7368 43.7111 59.1576 43.935 58.6173C44.1589 58.0769 44.4871 57.5859 44.9007 57.1724C45.3175 56.7549 45.8128 56.424 46.3581 56.199V40.2425C45.815 40.0188 45.3215 39.69 44.9058 39.2751C44.4902 38.8601 44.1607 38.3671 43.9362 37.8243C43.7116 37.2816 43.5966 36.6999 43.5975 36.1125C43.5985 35.5252 43.7155 34.9438 43.9419 34.4019L37.3523 27.8111L19.9505 45.2084C19.2493 45.911 18.8555 46.8631 18.8555 47.8558C18.8555 48.8485 19.2493 49.8006 19.9505 50.5032L45.3283 75.881C46.0309 76.582 46.9829 76.9757 47.9754 76.9757C48.9679 76.9757 49.9199 76.582 50.6225 75.881L75.8814 50.6221C76.5826 49.9195 76.9764 48.9674 76.9764 47.9747C76.9764 46.982 76.5826 46.0299 75.8814 45.3273Z" fill="#F03C2E"/>
</g>
</svg>
