<svg width="96" height="96" viewBox="0 0 96 96" fill="none" xmlns="http://www.w3.org/2000/svg">
<path d="M71.7773 18.8984H24.1234C21.2139 18.8984 18.8555 21.2569 18.8555 24.1664V71.7982C18.8555 74.7298 21.2139 77.0882 24.1234 77.0882H71.7553C74.6648 77.0882 77.0232 74.7298 77.0232 71.8203V24.1664C77.0453 21.2569 74.6868 18.8984 71.7773 18.8984Z" fill="#FF3366"/>
<path d="M38.3104 37.2123C40.2501 37.2123 41.8591 35.6915 41.8591 33.7077C41.8591 31.724 40.228 30.2031 38.3104 30.2031C36.3708 30.2031 34.7617 31.724 34.7617 33.7077C34.7617 35.6915 36.3928 37.2123 38.3104 37.2123Z" fill="white"/>
<path d="M30.9494 55.9684C30.7511 56.8501 30.6409 57.8199 30.6409 58.5914C30.6409 61.6772 32.316 63.7271 35.8647 63.7271C38.8183 63.7271 41.1988 61.9858 42.918 59.1424L41.86 63.3524H47.7231L51.0734 49.929C51.911 46.5346 53.52 44.7713 55.9887 44.7713C57.9283 44.7713 59.1186 45.9836 59.1186 47.9673C59.1186 48.5404 59.0745 49.1796 58.8541 49.8409L57.1348 56.0125C56.8703 56.8942 56.7601 57.7979 56.7601 58.6355C56.7601 61.567 58.4794 63.705 62.0942 63.705C65.18 63.705 67.6266 61.7213 68.9932 56.9603L66.7009 56.0786C65.5547 59.2747 64.5629 59.8478 63.7694 59.8478C62.9759 59.8478 62.5571 59.3188 62.5571 58.2828C62.5571 57.8199 62.6673 57.2909 62.8216 56.6517L64.4967 50.6344C64.9155 49.2237 65.0698 47.9673 65.0698 46.8212C65.0698 42.3247 62.3587 39.9883 59.0525 39.9883C55.9666 39.9883 52.8367 42.7655 51.2718 45.6971L52.4179 40.4512H43.4691L42.2127 45.0799H46.4006L43.8217 55.3954C41.7939 59.8918 38.0909 59.958 37.628 59.8698C36.8566 59.6935 36.3717 59.4069 36.3717 58.415C36.3717 57.842 36.4819 57.0264 36.7464 56.0125L40.6698 40.4512H30.729L29.4727 45.0799H33.5944L30.9494 55.9684Z" fill="white"/>
</svg>
