<svg width="96" height="96" viewBox="0 0 96 96" fill="none" xmlns="http://www.w3.org/2000/svg">
<path d="M78 18H18V78H78V18Z" fill="#F7DF1E"/>
<path d="M58.3035 64.8742C59.5121 66.8475 61.0845 68.298 63.8654 68.298C66.2016 68.298 67.694 67.1304 67.694 65.517C67.694 63.5837 66.1607 62.8989 63.5893 61.7742L62.1797 61.1694C58.1112 59.4361 55.4083 57.2647 55.4083 52.6742C55.4083 48.4456 58.6302 45.2266 63.6654 45.2266C67.2502 45.2266 69.8274 46.4742 71.6845 49.7408L67.294 52.5599C66.3273 50.8266 65.2845 50.1437 63.6654 50.1437C62.014 50.1437 60.9674 51.1913 60.9674 52.5599C60.9674 54.2513 62.015 54.9361 64.434 55.9837L65.8435 56.5875C70.634 58.6418 73.3388 60.7361 73.3388 65.4447C73.3388 70.5208 69.3512 73.3018 63.9959 73.3018C58.7597 73.3018 55.3769 70.8066 53.7216 67.5361L58.3035 64.8742ZM38.3864 65.3628C39.2721 66.9342 40.0778 68.2628 42.015 68.2628C43.8674 68.2628 45.0359 67.538 45.0359 64.7199V45.5485H50.674V64.7961C50.674 70.6342 47.2512 73.2913 42.255 73.2913C37.7407 73.2913 35.1264 70.9551 33.7969 68.1413L38.3864 65.3628Z" fill="black"/>
</svg>
