<svg width="96" height="96" viewBox="0 0 96 96" fill="none" xmlns="http://www.w3.org/2000/svg">
<path d="M31.4614 18.8555H64.44C71.3974 18.8555 77.0459 24.504 77.0459 31.4614V64.44C77.0459 71.3974 71.3974 77.0459 64.44 77.0459H31.4614C24.504 77.0459 18.8555 71.3974 18.8555 64.44V31.4614C18.8555 24.504 24.504 18.8555 31.4614 18.8555Z" fill="#FFD02F"/>
<path d="M59.293 26.125H52.9039L58.2253 35.4761L46.5149 26.125H40.1258L45.981 37.5599L33.7367 26.125H27.3477L33.7367 40.6769L27.3477 69.7808H33.7367L45.981 38.5932L40.1258 69.7808H46.5149L58.2253 36.5266L52.9039 69.7808H59.293L71.0034 33.3924L59.293 26.125Z" fill="#050038"/>
</svg>
