<svg width="96" height="96" viewBox="0 0 96 96" fill="none" xmlns="http://www.w3.org/2000/svg">
<path d="M60.7985 42.0126C57.7329 28.4888 51.3434 24.8885 49.7135 22.3436C49.0414 21.2224 48.446 20.0571 47.9314 18.8555C47.8453 20.0569 47.6871 20.8138 46.6659 21.7248C44.6155 23.553 35.9073 30.6493 35.1745 46.0153C34.4917 60.3421 45.7068 69.1764 47.1885 70.0895C48.3279 70.6502 49.7155 70.1015 50.3923 69.5869C55.7986 65.8766 63.1853 55.985 60.8045 42.0126" fill="#10AA50"/>
<path d="M48.4006 62.4609C48.1183 66.0071 47.9161 68.0675 47.1992 70.0939C47.1992 70.0939 47.6698 73.4698 48.0002 77.046H49.1695C49.4485 74.5277 49.8744 72.0279 50.445 69.5593C48.9312 68.8144 48.4587 65.5726 48.4006 62.4609Z" fill="#B8C4C2"/>
<path d="M50.4352 69.5612C48.9054 68.8544 48.4629 65.5445 48.3948 62.4609C48.7731 57.3743 48.8834 52.2712 48.7252 47.173C48.6451 44.4978 48.7632 22.3959 48.0664 19.1602C48.5431 20.2561 49.0923 21.319 49.7103 22.3419C51.3402 24.8889 57.7317 28.4891 60.7953 42.0129C63.1821 55.9613 55.8355 65.8268 50.4352 69.5612Z" fill="#12924F"/>
</svg>
