<svg width="96" height="96" viewBox="0 0 96 96" fill="none" xmlns="http://www.w3.org/2000/svg">
<path d="M51.6605 68H73.9651C74.6735 68.0001 75.3695 67.8153 75.983 67.4642C76.5965 67.1131 77.1059 66.6081 77.46 65.9999C77.8141 65.3917 78.0003 64.7019 78 63.9998C77.9997 63.2977 77.8129 62.608 77.4582 62.0001L62.4791 36.2859C62.1251 35.6779 61.6158 35.173 61.0024 34.8219C60.389 34.4709 59.6932 34.2861 58.9849 34.2861C58.2766 34.2861 57.5807 34.4709 56.9674 34.8219C56.354 35.173 55.8447 35.6779 55.4907 36.2859L51.6605 42.8653L44.1721 29.9995C43.8177 29.3916 43.3082 28.8867 42.6947 28.5357C42.0811 28.1848 41.3851 28 40.6767 28C39.9683 28 39.2724 28.1848 38.6589 28.5357C38.0453 28.8867 37.5357 29.3916 37.1814 29.9995L18.5418 62.0001C18.1872 62.608 18.0003 63.2977 18 63.9998C17.9997 64.7019 18.1859 65.3917 18.54 65.9999C18.8941 66.6081 19.4035 67.1131 20.017 67.4642C20.6305 67.8153 21.3265 68.0001 22.0349 68H36.0359C41.5832 68 45.6741 65.585 48.4891 60.8734L55.3233 49.143L58.9838 42.8653L69.9698 61.7223H55.3233L51.6605 68ZM35.8076 61.7158L26.0367 61.7136L40.6833 36.5724L47.9913 49.143L43.0983 57.545C41.2289 60.602 39.1051 61.7158 35.8076 61.7158Z" fill="#00DC82"/>
</svg>
