<svg width="96" height="96" viewBox="0 0 96 96" fill="none" xmlns="http://www.w3.org/2000/svg">
<path fill-rule="evenodd" clip-rule="evenodd" d="M29.5696 20.7713L47.8387 18.8555L66.1078 20.7713L80.2516 39.6053L47.8387 77.046L15.4258 39.6053L29.5696 20.7713Z" fill="#FDB300"/>
<path fill-rule="evenodd" clip-rule="evenodd" d="M28.5545 39.6016L47.8385 77.0424L15.4258 39.6016H28.5545Z" fill="#EA6C00"/>
<path fill-rule="evenodd" clip-rule="evenodd" d="M67.1096 39.6016L47.8255 77.0424L80.2383 39.6016H67.1096Z" fill="#EA6C00"/>
<path fill-rule="evenodd" clip-rule="evenodd" d="M28.5508 39.6016H67.1189L47.8348 77.0424L28.5508 39.6016Z" fill="#FDAD00"/>
<path fill-rule="evenodd" clip-rule="evenodd" d="M47.8348 18.8555L29.5657 20.771L28.5508 39.6051L47.8348 18.8555Z" fill="#FDD231"/>
<path fill-rule="evenodd" clip-rule="evenodd" d="M47.837 18.8555L66.1061 20.771L67.1211 39.6051L47.837 18.8555Z" fill="#FDD231"/>
<path fill-rule="evenodd" clip-rule="evenodd" d="M80.2539 39.6036L66.1102 20.7695L67.1252 39.6036H80.2539Z" fill="#FDAD00"/>
<path fill-rule="evenodd" clip-rule="evenodd" d="M15.4258 39.6036L29.5694 20.7695L28.5545 39.6036H15.4258Z" fill="#FDAD00"/>
<path fill-rule="evenodd" clip-rule="evenodd" d="M47.8348 18.8555L28.5508 39.6051H67.1189L47.8348 18.8555Z" fill="#FEEEB7"/>
</svg>
