<svg width="96" height="96" viewBox="0 0 96 96" fill="none" xmlns="http://www.w3.org/2000/svg">
<path d="M46.95 30.8707C36.8471 31.1918 33.8444 38.4088 33.1562 42.3185C34.0529 40.8693 36.8784 37.6894 41.0384 37.6894C45.8865 37.6894 49.5773 43.1006 51.8294 44.7896C54.5654 46.8416 60.0633 49.5511 67.2808 47.3544C73.0361 45.6028 75.7052 39.493 76.289 36.5946C73.5052 40.3793 69.2827 42.6525 64.0592 39.9727C60.4622 38.1272 57.7723 30.5267 46.95 30.8707Z" fill="#07B6D5"/>
<path d="M32.6531 48.0426C22.5502 48.3637 19.5475 55.5806 18.8594 59.4904C19.756 58.0412 22.5815 54.8613 26.7415 54.8613C31.5896 54.8613 35.2805 60.2724 37.5325 61.9615C40.2685 64.0135 45.7664 66.723 52.984 64.5263C58.7392 62.7747 61.4083 56.6649 61.9921 53.7665C59.2083 57.5512 54.9858 59.8244 49.7623 57.1445C46.1653 55.2991 43.4754 47.6986 32.6531 48.0426Z" fill="#07B6D5"/>
</svg>
