<svg width="96" height="96" viewBox="0 0 96 96" fill="none" xmlns="http://www.w3.org/2000/svg">
<path d="M64.4058 18.8555H31.4966C24.5151 18.8555 18.8555 24.5151 18.8555 31.4966V64.4058C18.8555 71.3873 24.5151 77.0469 31.4966 77.0469H64.4058C71.3873 77.0469 77.0469 71.3873 77.0469 64.4058V31.4966C77.0469 24.5151 71.3873 18.8555 64.4058 18.8555Z" fill="url(#paint0_linear_800_3953)"/>
<path d="M64.4917 20.3945H31.4114C25.3269 20.3945 20.3945 25.3269 20.3945 31.4114V64.4917C20.3945 70.5761 25.3269 75.5085 31.4114 75.5085H64.4917C70.5761 75.5085 75.5085 70.5761 75.5085 64.4917V31.4114C75.5085 25.3269 70.5761 20.3945 64.4917 20.3945Z" fill="black"/>
<path d="M64.5333 24.7305H31.3688C27.7026 24.7305 24.7305 27.7026 24.7305 31.3688V64.5333C24.7305 68.1996 27.7026 71.1717 31.3688 71.1717H64.5333C68.1996 71.1717 71.1717 68.1996 71.1717 64.5333V31.3688C71.1717 27.7026 68.1996 24.7305 64.5333 24.7305Z" fill="#202A2F"/>
<path d="M44.033 27.8086H37.7383V40.3981H44.033V27.8086Z" fill="#0EE827" fill-opacity="0.35"/>
<path d="M31.173 38.2501C30.8439 38.2222 30.5353 38.1756 30.2473 38.1105C29.9696 38.0359 29.7124 37.9569 29.4759 37.8731C29.2496 37.7893 29.049 37.7102 28.8742 37.6357C28.7096 37.5519 28.5862 37.4867 28.5039 37.4402L29.1673 36.2114C29.2393 36.2579 29.3627 36.323 29.5376 36.4069C29.7124 36.4906 29.9078 36.579 30.1239 36.6722C30.3501 36.7559 30.5816 36.8305 30.8181 36.8956C31.0547 36.9607 31.2758 36.9934 31.4816 36.9934C32.5101 36.9934 33.0244 36.607 33.0244 35.8344C33.0244 35.6481 32.9884 35.4945 32.9164 35.3736C32.8547 35.2525 32.757 35.1501 32.6233 35.0664C32.4998 34.9732 32.3455 34.8941 32.1604 34.8289C31.9856 34.7545 31.785 34.68 31.5587 34.6056C31.1267 34.4565 30.741 34.3029 30.4016 34.1447C30.0725 33.9772 29.7896 33.7909 29.553 33.5861C29.3165 33.3813 29.1365 33.1486 29.013 32.888C28.8896 32.6273 28.8279 32.3294 28.8279 31.9943C28.8279 31.7336 28.8845 31.4823 28.9976 31.2402C29.1107 30.9982 29.2701 30.7841 29.4759 30.5979C29.6816 30.4024 29.9285 30.2395 30.2165 30.1091C30.5044 29.9695 30.8233 29.8718 31.173 29.8159V27.8086H32.4381V29.7879C32.7056 29.8159 32.9627 29.8578 33.2095 29.9137C33.4564 29.9695 33.6775 30.03 33.8729 30.0952C34.0684 30.1603 34.2329 30.2255 34.3666 30.2907C34.5106 30.3466 34.6135 30.3884 34.6752 30.4163L34.0581 31.5614C33.9758 31.5242 33.8575 31.4776 33.7032 31.4218C33.5592 31.3566 33.3947 31.2914 33.2095 31.2263C33.0244 31.1611 32.8238 31.1052 32.6078 31.0587C32.3919 31.0122 32.1758 30.9889 31.9599 30.9889C31.6102 30.9889 31.2964 31.054 31.0187 31.1843C30.7513 31.3054 30.6176 31.5148 30.6176 31.8127C30.6176 31.9989 30.6536 32.1665 30.7256 32.3155C30.8078 32.4551 30.921 32.5808 31.065 32.6924C31.2193 32.8042 31.4044 32.9112 31.6204 33.0136C31.8467 33.1067 32.1039 33.1998 32.3919 33.2929C32.7724 33.4325 33.1118 33.5768 33.4101 33.7258C33.7084 33.8748 33.9603 34.0423 34.1661 34.2285C34.3718 34.4147 34.5261 34.6288 34.6289 34.8708C34.742 35.1129 34.7986 35.3968 34.7986 35.7226C34.7986 36.0019 34.7472 36.2718 34.6444 36.5325C34.5518 36.7932 34.4026 37.0353 34.1969 37.2586C34.0015 37.4821 33.7547 37.6775 33.4564 37.8451C33.1684 38.0034 32.8289 38.1198 32.4381 38.1942V40.2582H31.173V38.2501Z" fill="#0EE827"/>
<defs>
<linearGradient id="paint0_linear_800_3953" x1="47.9512" y1="18.8555" x2="47.9512" y2="77.0469" gradientUnits="userSpaceOnUse">
<stop stop-color="#D4E6E8"/>
<stop offset="1" stop-color="#767573"/>
</linearGradient>
</defs>
</svg>
