<svg width="96" height="96" viewBox="0 0 96 96" fill="none" xmlns="http://www.w3.org/2000/svg">
<path d="M75.8782 24.4788L63.5155 18.5264C62.0845 17.8374 60.3743 18.128 59.2513 19.251L18.7805 56.151C17.6919 57.1434 17.6931 58.8573 18.7832 59.8482L22.0889 62.8534C22.9801 63.6636 24.3221 63.7232 25.2816 62.9953L74.0179 26.023C75.6529 24.7826 78.0013 25.9488 78.0013 28.0011V27.8575C78.0013 26.4169 77.1761 25.1037 75.8782 24.4788Z" fill="#0065A9"/>
<path d="M75.8782 71.5209L63.5155 77.4734C62.0845 78.1625 60.3743 77.8717 59.2513 76.7487L18.7805 39.8488C17.6919 38.8563 17.6931 37.1424 18.7832 36.1515L22.0889 33.1463C22.9801 32.3361 24.3221 32.2765 25.2816 33.0044L74.0179 69.9767C75.6529 71.2171 78.0013 70.0509 78.0013 67.9987V68.1422C78.0013 69.5828 77.1761 70.896 75.8782 71.5209Z" fill="#007ACC"/>
<path d="M63.5147 77.4774C62.0833 78.166 60.3731 77.8747 59.25 76.7516C60.6338 78.1354 63 77.1553 63 75.1983V20.8049C63 18.8478 60.6338 17.8677 59.25 19.2516C60.3731 18.1284 62.0833 17.8374 63.5147 18.5258L75.8752 24.47C77.174 25.0946 78 26.4083 78 27.8495V68.1539C78 69.5951 77.174 70.9088 75.8752 71.5334L63.5147 77.4774Z" fill="#1F9CF0"/>
<g style="mix-blend-mode:overlay" opacity="0.25">
<path fill-rule="evenodd" clip-rule="evenodd" d="M60.512 77.5918C61.457 77.9599 62.5346 77.9363 63.4883 77.4774L75.8413 71.5334C77.1394 70.9088 77.9648 69.5951 77.9648 68.1538V27.8495C77.9648 26.4083 77.1394 25.0946 75.8414 24.47L63.4883 18.5258C62.2366 17.9234 60.7716 18.071 59.6729 18.8697C59.516 18.9838 59.3665 19.1112 59.2262 19.2516L35.5779 40.8264L25.2772 33.0073C24.3183 32.2794 22.977 32.3391 22.0864 33.1492L18.7827 36.1544C17.6933 37.1454 17.6921 38.8592 18.78 39.8517L27.7131 48.0016L18.78 56.1515C17.6921 57.144 17.6933 58.8578 18.7827 59.8487L22.0864 62.854C22.977 63.6641 24.3183 63.7237 25.2772 62.9959L35.5779 55.1767L59.2262 76.7516C59.6003 77.1259 60.0396 77.4078 60.512 77.5918ZM62.974 34.3809L45.0303 48.0016L62.974 61.6223V34.3809Z" fill="url(#paint0_linear_804_4307)"/>
</g>
<defs>
<linearGradient id="paint0_linear_804_4307" x1="47.9648" y1="18.1562" x2="47.9648" y2="77.8469" gradientUnits="userSpaceOnUse">
<stop stop-color="white"/>
<stop offset="1" stop-color="white" stop-opacity="0"/>
</linearGradient>
</defs>
</svg>
