<svg width="96" height="96" viewBox="0 0 96 96" fill="none" xmlns="http://www.w3.org/2000/svg">
<path fill-rule="evenodd" clip-rule="evenodd" d="M24.9306 57.3706L18.8555 50.577L37.4512 43.8086L40.3448 51.7624L24.9306 57.3706Z" fill="#F89920"/>
<path fill-rule="evenodd" clip-rule="evenodd" d="M24.8828 57.241L24.5977 66.3551L43.1934 59.5866L40.2998 51.6328L24.8828 57.241Z" fill="#FFBE22"/>
<path fill-rule="evenodd" clip-rule="evenodd" d="M76.5682 38.5938C79.2213 46.282 70.672 56.3829 57.3727 61.2251C44.0735 66.0673 31.03 63.8251 28.1211 56.2278L76.5682 38.5938Z" fill="#F0670A"/>
<path fill-rule="evenodd" clip-rule="evenodd" d="M76.5605 38.5912C73.6698 30.977 60.6137 28.7251 47.3005 33.57C33.9873 38.415 25.4324 48.5341 28.1121 56.2112L76.5605 38.5912Z" fill="#FFD00E"/>
<path fill-rule="evenodd" clip-rule="evenodd" d="M76.5654 38.5938C78.219 43.7379 68.9372 51.7336 55.6785 56.573C42.4198 61.4124 30.1592 61.2279 28.1211 56.2264L76.5654 38.5938Z" fill="#F89920"/>
<path fill-rule="evenodd" clip-rule="evenodd" d="M76.569 38.5896C74.5603 33.5629 62.2829 33.384 49.0032 38.2178C35.7235 43.0516 26.432 51.0781 28.1248 56.2222L76.569 38.5896Z" fill="#FFBE22"/>
<path d="M54.2077 31.612C52.9426 27.2367 51.5028 24.81 49.8659 24.8561C46.7011 24.9456 45.6374 34.9808 46.662 47.8397C47.6964 60.8357 50.3803 70.5969 53.7296 70.5089C55.7257 70.4571 56.8496 67.263 57.2452 61.7163C57.2536 61.6045 57.1264 61.6814 57.1334 61.5653C57.1334 61.5653 57.1166 61.3627 57.0425 61.3585L56.6176 61.3305C56.2681 66.7123 55.2169 69.8155 53.71 69.8575C50.959 69.9274 48.3003 60.2723 47.3078 47.788C46.3293 35.5078 47.3833 25.576 49.8827 25.5061C51.0653 25.4726 52.3918 27.7078 53.5646 31.7378L54.2077 31.598V31.612Z" fill="#F0670A"/>
<path d="M38.525 28.4927C35.8272 30.1533 39.9257 39.375 47.2421 50.0001C54.6368 60.7357 61.8428 67.848 64.6972 66.0979C66.2908 65.1194 65.8434 62.1504 63.7886 57.6688C63.7425 57.557 63.6404 57.4829 63.509 57.4689C63.3776 57.4549 63.2742 57.5109 63.2071 57.6087C63.14 57.7066 63.1302 57.8324 63.1847 57.94C65.0942 62.1056 65.5052 64.8315 64.3421 65.5444C61.9937 66.9842 54.8674 59.9473 47.7635 49.6311C40.777 39.4854 36.7232 30.3602 38.8521 29.0476C39.9844 28.3515 42.6711 30.0317 46.2259 33.6605C46.265 33.7025 46.4915 33.9359 46.5432 33.9513C46.655 33.9848 46.5991 33.7514 46.6858 33.6647C46.7473 33.6046 46.7836 33.5222 46.7836 33.4355C46.7836 33.3488 46.7515 33.2677 46.6899 33.2048C42.8934 29.3272 40.0445 27.5463 38.5097 28.4913L38.525 28.4927Z" fill="#F0670A"/>
</svg>
