<?xml version="1.0" standalone="no"?>
<!DOCTYPE svg PUBLIC "-//W3C//DTD SVG 20010904//EN"
 "http://www.w3.org/TR/2001/REC-SVG-20010904/DTD/svg10.dtd">
<svg version="1.0" xmlns="http://www.w3.org/2000/svg"
 width="288.000000pt" height="288.000000pt" viewBox="0 0 288.000000 288.000000"
 preserveAspectRatio="xMidYMid meet">
<metadata>
Created by potrace 1.14, written by Peter Selinger 2001-2017
</metadata>
<g transform="translate(0.000000,288.000000) scale(0.100000,-0.100000)"
fill="#000000" stroke="none">
<path d="M1383 2773 c-5 -1 -53 -4 -108 -6 -93 -5 -120 -8 -185 -23 -14 -3
-34 -8 -45 -10 -11 -2 -29 -6 -40 -8 -38 -8 -157 -56 -218 -88 -108 -56 -243
-165 -299 -240 -15 -20 -34 -43 -42 -50 -23 -23 -67 -114 -70 -144 -2 -15 1
-45 6 -67 5 -25 5 -44 -2 -51 -13 -16 -37 -84 -46 -133 -9 -48 -10 -232 -1
-300 4 -28 18 -93 30 -143 l24 -92 -38 -24 c-21 -13 -40 -33 -44 -44 -10 -31
4 -79 26 -90 10 -6 19 -15 19 -20 0 -6 9 -19 20 -30 11 -11 20 -30 20 -43 0
-33 29 -116 56 -159 22 -34 64 -68 64 -51 0 4 4 3 10 -3 5 -5 12 -37 14 -69
16 -209 47 -300 147 -430 103 -136 316 -295 437 -327 58 -16 273 -11 332 7 8
3 35 7 60 10 57 7 127 29 208 66 35 16 68 29 73 29 5 0 9 5 9 10 0 6 5 10 11
10 26 0 172 113 259 200 143 143 262 329 286 445 1 6 7 23 13 38 9 24 16 28
48 26 83 -5 126 57 149 216 28 198 -8 343 -94 376 -17 7 -21 13 -14 26 9 20 8
178 -2 263 -38 310 -168 554 -380 714 -64 48 -191 120 -199 114 -2 -2 -10 2
-18 8 -29 24 -201 70 -299 80 -52 5 -166 10 -177 7z"/>
</g>
</svg>
