<svg width="112" height="32" viewBox="0 0 112 32" fill="none" xmlns="http://www.w3.org/2000/svg">
<path d="M27.9801 26.2781C26.5275 26.2781 25.2779 25.9703 24.2315 25.3548C23.1913 24.7331 22.3911 23.8713 21.831 22.7695C21.277 21.6677 21 20.3997 21 18.9656C21 17.5129 21.2801 16.2388 21.8402 15.1431C22.4065 14.0413 23.2098 13.1826 24.25 12.5671C25.2902 11.9454 26.5275 11.6346 27.9616 11.6346C29.1989 11.6346 30.2822 11.8593 31.2116 12.3086C32.1411 12.7579 32.8767 13.3888 33.4183 14.2013C33.96 15.0138 34.2585 15.9679 34.3139 17.0636H30.6023C30.4976 16.3557 30.2206 15.7863 29.7713 15.3555C29.3281 14.9184 28.7464 14.6999 28.0263 14.6999C27.4169 14.6999 26.8845 14.8661 26.429 15.1985C25.9796 15.5247 25.6288 16.0018 25.3764 16.6296C25.1241 17.2575 24.9979 18.0176 24.9979 18.9102C24.9979 19.815 25.121 20.5844 25.3672 21.2184C25.6196 21.8524 25.9735 22.3356 26.429 22.668C26.8845 23.0004 27.4169 23.1665 28.0263 23.1665C28.4756 23.1665 28.8788 23.0742 29.2358 22.8896C29.599 22.7049 29.8975 22.4371 30.1314 22.0863C30.3714 21.7293 30.5284 21.3015 30.6023 20.8029H34.3139C34.2524 21.8862 33.9569 22.8403 33.4276 23.6651C32.9044 24.4838 32.1811 25.1239 31.2578 25.5856C30.3345 26.0472 29.242 26.2781 27.9801 26.2781Z" fill="#021626"/>
<path d="M40.7654 7.09197V26.0011H36.8322V7.09197H40.7654Z" fill="#021626"/>
<path d="M43.9162 26.0011V11.8192H47.8494V26.0011H43.9162ZM45.892 9.99112C45.3073 9.99112 44.8056 9.79723 44.3871 9.40945C43.9747 9.01551 43.7685 8.54463 43.7685 7.9968C43.7685 7.45514 43.9747 6.99041 44.3871 6.60263C44.8056 6.20869 45.3073 6.01172 45.892 6.01172C46.4768 6.01172 46.9754 6.20869 47.3878 6.60263C47.8063 6.99041 48.0156 7.45514 48.0156 7.9968C48.0156 8.54463 47.8063 9.01551 47.3878 9.40945C46.9754 9.79723 46.4768 9.99112 45.892 9.99112Z" fill="#021626"/>
<path d="M57.4632 26.2781C56.0044 26.2781 54.7488 25.9826 53.6962 25.3917C52.6498 24.7946 51.8435 23.9514 51.2772 22.8619C50.7109 21.7662 50.4277 20.4705 50.4277 18.9748C50.4277 17.516 50.7109 16.2357 51.2772 15.1339C51.8435 14.0321 52.6406 13.1734 53.6685 12.5579C54.7026 11.9424 55.9152 11.6346 57.3063 11.6346C58.2419 11.6346 59.1129 11.7854 59.9192 12.087C60.7317 12.3825 61.4396 12.8287 62.0428 13.4258C62.6522 14.0228 63.1261 14.7738 63.4647 15.6786C63.8032 16.5773 63.9725 17.6299 63.9725 18.8363V19.9165H51.9973V17.479H60.2701C60.2701 16.9128 60.147 16.4111 59.9007 15.9741C59.6545 15.5371 59.3129 15.1954 58.8759 14.9492C58.445 14.6969 57.9434 14.5707 57.3709 14.5707C56.7739 14.5707 56.2445 14.7092 55.7828 14.9862C55.3274 15.257 54.9703 15.6232 54.7118 16.0849C54.4533 16.5404 54.321 17.0482 54.3148 17.6083V19.9258C54.3148 20.6275 54.4441 21.2338 54.7026 21.7447C54.9673 22.2556 55.3397 22.6495 55.8198 22.9265C56.2999 23.2035 56.8693 23.342 57.5279 23.342C57.9649 23.342 58.365 23.2804 58.7282 23.1573C59.0913 23.0342 59.4022 22.8496 59.6607 22.6033C59.9192 22.3571 60.1162 22.0555 60.2516 21.6985L63.8894 21.9386C63.7047 22.8126 63.3262 23.5759 62.7537 24.2283C62.1874 24.8746 61.455 25.3794 60.5563 25.7425C59.6638 26.0996 58.6328 26.2781 57.4632 26.2781Z" fill="#021626"/>
<path d="M70.4725 17.8022V26.0011H66.5392V11.8192H70.2878V14.3214H70.454C70.7679 13.4966 71.2942 12.8441 72.0328 12.364C72.7715 11.8777 73.6671 11.6346 74.7196 11.6346C75.7045 11.6346 76.5632 11.85 77.2956 12.2809C78.0281 12.7118 78.5975 13.3273 79.0037 14.1275C79.41 14.9215 79.6131 15.8694 79.6131 16.9712V26.0011H75.6799V17.6729C75.686 16.805 75.4644 16.128 75.0151 15.6417C74.5658 15.1493 73.9471 14.9031 73.1593 14.9031C72.6299 14.9031 72.1621 15.0169 71.7559 15.2447C71.3558 15.4724 71.0418 15.8048 70.8141 16.2418C70.5925 16.6727 70.4786 17.1928 70.4725 17.8022Z" fill="#021626"/>
<path d="M90.2564 11.8192V14.7738H81.7159V11.8192H90.2564ZM83.6548 8.42152H87.5881V21.6431C87.5881 22.0063 87.6435 22.2894 87.7543 22.4925C87.8651 22.6895 88.0189 22.828 88.2159 22.908C88.419 22.988 88.6529 23.0281 88.9176 23.0281C89.1023 23.0281 89.2869 23.0127 89.4716 22.9819C89.6562 22.945 89.7978 22.9173 89.8963 22.8988L90.5149 25.8256C90.3179 25.8872 90.041 25.958 89.6839 26.038C89.3269 26.1242 88.893 26.1765 88.3821 26.195C87.4342 26.2319 86.6032 26.1057 85.8892 25.8164C85.1813 25.5271 84.6304 25.0778 84.2365 24.4684C83.8426 23.859 83.6487 23.0896 83.6548 22.1602V8.42152Z" fill="#021626"/>
</svg>